<?xml version="1.0" standalone="no"?>
<!DOCTYPE svg PUBLIC "-//W3C//DTD SVG 20010904//EN"
 "http://www.w3.org/TR/2001/REC-SVG-20010904/DTD/svg10.dtd">
<svg version="1.0" xmlns="http://www.w3.org/2000/svg"
 width="1536.000000pt" height="1024.000000pt" viewBox="0 0 1536.000000 1024.000000"
 preserveAspectRatio="xMidYMid meet">

<g transform="translate(0.000000,1024.000000) scale(0.100000,-0.100000)"
fill="#000000" stroke="none">
<path d="M7731 8984 c97 -194 90 -423 -18 -581 -4 -6 -9 35 -9 90 -1 82 -6
117 -27 175 -30 87 -75 163 -135 232 -101 115 -311 160 -517 111 -104 -26
-162 -51 -263 -118 l-84 -56 92 -37 c50 -21 109 -50 130 -64 91 -60 166 -164
205 -284 14 -45 46 -223 41 -229 -1 -2 -49 45 -106 103 -116 119 -177 164
-265 194 -95 33 -168 36 -245 10 -127 -43 -234 -141 -330 -300 -46 -77 -116
-237 -107 -246 2 -2 39 6 83 18 63 17 108 21 224 22 144 1 146 1 211 -31 147
-72 229 -227 269 -508 7 -49 15 -92 16 -94 2 -2 33 23 68 57 87 81 235 186
323 228 92 44 183 64 303 64 171 0 287 -47 406 -165 137 -135 233 -290 324
-518 60 -153 86 -280 145 -717 42 -302 90 -489 183 -710 22 -52 39 -96 37 -98
-7 -8 -127 29 -174 53 -28 14 -75 45 -106 70 -30 25 -55 44 -56 43 0 -2 -4
-73 -9 -158 -10 -176 -27 -245 -76 -296 -57 -61 -127 -44 -238 58 -63 57 -126
158 -126 202 0 33 -16 14 -33 -41 -29 -92 -81 -195 -127 -250 -50 -61 -109
-94 -325 -183 -177 -73 -343 -158 -404 -207 -63 -52 -126 -137 -172 -229 -21
-44 -39 -86 -39 -93 0 -6 42 25 93 69 148 131 269 194 542 283 322 106 514
135 695 106 89 -14 235 -64 293 -99 27 -17 51 -30 53 -30 19 0 -62 112 -123
171 -40 39 -72 73 -71 74 2 1 32 18 68 38 113 62 374 132 535 144 152 11 458
-53 529 -110 l30 -24 -35 -44 c-20 -24 -47 -65 -62 -90 -24 -43 -107 -226
-107 -238 0 -2 42 36 93 86 113 111 196 172 307 228 145 73 204 87 382 93 141
4 164 2 229 -18 64 -19 80 -29 134 -84 34 -36 91 -113 132 -182 39 -66 89
-137 110 -157 58 -59 196 -117 238 -101 24 10 18 31 -24 84 -82 104 -131 212
-178 394 -26 99 -27 108 -28 451 -1 340 -2 354 -28 481 -15 73 -34 153 -42
179 -13 46 -13 49 11 80 22 30 51 102 68 169 l7 29 -36 -27 c-48 -37 -167 -76
-230 -76 -72 0 -157 44 -229 119 l-56 60 0 -43 c0 -65 26 -137 65 -183 l36
-42 -41 -11 c-50 -13 -170 1 -205 24 -29 19 -40 54 -31 97 3 17 1 62 -6 101
-8 53 -8 91 0 157 11 85 8 131 -9 131 -5 0 -20 -17 -33 -37 -18 -27 -30 -66
-40 -139 -9 -56 -18 -109 -22 -117 -9 -25 -39 -29 -81 -12 -51 21 -83 53 -83
83 0 22 31 116 80 241 11 29 18 56 15 59 -8 8 -70 -26 -94 -52 -11 -12 -33
-52 -48 -90 -32 -80 -56 -102 -79 -71 -21 29 -34 83 -34 148 l0 59 88 91 c177
185 237 223 338 213 202 -21 570 -167 746 -298 210 -155 429 -460 633 -883
239 -495 325 -782 325 -1085 -1 -162 -33 -321 -72 -357 -17 -16 -21 -14 -58
22 -44 43 -38 51 -59 -75 -23 -140 -127 -287 -264 -374 -91 -58 -289 -162
-387 -204 -234 -99 -613 -182 -834 -182 -129 0 -315 46 -456 113 -73 35 -222
131 -190 123 264 -68 413 -80 617 -51 123 17 202 43 310 100 128 68 187 110
265 194 69 74 118 152 134 216 7 29 7 29 -47 -17 -67 -57 -239 -161 -320 -194
-228 -93 -487 -92 -721 2 -93 38 -251 122 -293 157 -38 31 -40 46 -19 120 5
17 4 17 -23 4 -15 -8 -62 -24 -103 -37 -93 -27 -269 -124 -364 -200 -72 -57
-107 -100 -252 -310 -145 -211 -335 -377 -547 -480 -327 -157 -861 -174 -1208
-38 -193 75 -259 191 -259 458 0 150 21 294 50 332 33 45 19 53 -30 16 -55
-42 -121 -161 -150 -273 -44 -169 -103 -341 -131 -381 -45 -67 -82 -79 -229
-78 -204 1 -319 44 -430 160 -68 70 -108 147 -141 269 -30 109 -33 376 -6 505
39 181 88 321 181 510 31 62 55 115 53 116 -1 2 -41 -36 -87 -83 -209 -212
-412 -326 -631 -354 -186 -23 -398 41 -579 174 -41 31 -78 52 -82 48 -12 -11
11 -80 54 -164 46 -88 105 -147 207 -206 72 -42 202 -101 223 -101 10 -1 9 -3
-2 -9 -29 -16 -332 -44 -425 -38 -152 8 -358 85 -601 223 -112 64 -147 79
-210 89 -41 8 -104 28 -141 47 -55 27 -72 41 -92 77 -25 46 -51 137 -51 182
l0 27 95 -39 c53 -21 105 -41 117 -45 l21 -6 -21 30 c-37 51 -121 234 -137
297 -19 76 -19 228 0 341 51 293 303 813 558 1149 270 356 544 567 881 680
117 39 145 42 213 19 190 -65 351 -198 393 -327 14 -44 7 -112 -18 -163 -19
-40 -23 -41 -38 -11 -28 55 -129 235 -146 260 -51 72 -44 -4 14 -168 22 -60
42 -129 45 -153 5 -42 5 -42 -42 -63 -50 -22 -115 -36 -115 -24 0 4 -10 55
-21 114 -21 105 -40 153 -78 201 l-21 25 0 -212 c0 -251 4 -242 -113 -268 -83
-18 -114 -17 -108 6 2 8 10 37 17 64 8 28 14 96 14 151 0 90 -3 105 -22 130
-23 30 -49 53 -59 54 -3 0 -10 -26 -16 -57 -17 -88 -56 -169 -95 -193 -29 -19
-44 -21 -138 -17 -58 2 -114 8 -125 12 -11 4 1 -13 27 -38 28 -26 74 -56 115
-73 37 -15 70 -30 73 -32 3 -2 -6 -12 -19 -23 -45 -37 -127 -22 -268 48 -89
45 -92 46 -117 29 -14 -9 -26 -23 -26 -32 0 -33 45 -100 120 -177 l78 -82 1
-248 c0 -136 3 -258 7 -271 16 -65 -52 -311 -123 -450 -49 -96 -192 -239 -282
-284 -54 -27 -60 -32 -35 -32 55 1 209 40 267 68 31 16 59 26 62 24 3 -3 5
-19 5 -36 1 -17 6 -44 13 -60 l13 -29 97 146 c54 80 119 165 145 188 70 62
177 129 262 163 69 28 84 30 200 31 l125 0 140 -59 c193 -80 186 -76 266 -173
81 -98 150 -173 160 -173 10 0 -6 74 -36 168 -15 46 -25 85 -23 87 11 11 184
35 253 35 91 0 154 -10 257 -41 l69 -20 -54 -49 c-63 -57 -97 -126 -126 -251
-22 -98 -32 -179 -21 -179 4 0 10 6 13 13 15 40 208 157 339 207 74 28 77 27
68 -21 -4 -22 -4 -93 0 -157 5 -94 12 -129 33 -178 57 -134 140 -249 231 -321
51 -41 61 -41 41 -4 -83 162 -72 495 20 587 30 31 35 32 140 39 255 16 338 49
536 212 126 104 237 268 290 432 27 82 32 116 37 230 l5 134 73 91 c101 126
160 227 181 310 16 65 16 75 0 174 -12 75 -26 121 -46 156 -33 60 -54 72 -45
27 9 -43 -14 -187 -38 -244 -54 -124 -273 -248 -387 -217 -36 9 -57 30 -32 30
6 0 39 30 75 66 l66 67 0 96 0 96 -103 52 c-77 39 -278 177 -367 251 -6 4 38
42 50 42 4 0 22 -11 41 -25 54 -39 142 -83 181 -90 120 -23 235 94 246 249 3
39 10 74 16 78 33 22 223 -5 298 -43 56 -28 61 -26 55 27 -6 59 -38 92 -136
142 -140 72 -158 76 -246 59 -67 -14 -93 -27 -199 -95 -255 -167 -358 -211
-507 -214 -86 -3 -100 -1 -126 18 -27 21 -28 25 -26 100 1 47 11 107 23 149
12 39 24 87 27 108 5 35 4 37 -22 37 -20 0 -40 -12 -65 -39 -81 -85 -122 -224
-103 -343 6 -35 10 -64 8 -66 -1 -1 -35 -12 -76 -23 -140 -39 -313 -150 -384
-247 -19 -26 -49 -81 -67 -122 -28 -64 -32 -86 -32 -150 1 -68 19 -159 44
-226 l10 -26 38 37 c75 74 175 104 284 85 63 -11 165 -53 203 -84 18 -14 18
-17 4 -26 -83 -50 -194 -182 -255 -303 -52 -103 -75 -201 -81 -354 -3 -73 -10
-133 -14 -133 -5 0 -46 15 -91 34 -145 60 -191 70 -328 70 -138 0 -188 -13
-321 -79 l-67 -34 -54 29 c-203 114 -264 136 -396 146 -91 6 -131 -1 -402 -71
-52 -13 -95 -23 -96 -22 -10 9 -25 367 -22 498 3 136 7 171 23 206 l20 43 155
4 c85 2 178 9 207 15 46 11 55 10 90 -7 21 -11 64 -27 94 -36 52 -15 60 -15
105 0 136 46 257 126 285 188 17 39 17 49 5 132 l-14 89 37 74 c34 70 36 81
36 170 0 128 -19 164 -162 301 -117 114 -192 161 -318 200 -82 25 -180 22
-305 -11 -220 -58 -345 -125 -571 -305 -163 -130 -269 -238 -390 -400 -311
-413 -402 -561 -533 -873 -122 -289 -183 -509 -226 -815 -17 -116 -40 -256
-51 -312 -21 -96 -21 -102 -4 -137 34 -72 136 -152 360 -282 139 -80 188 -111
280 -176 203 -143 410 -252 588 -310 249 -82 431 -110 721 -113 l199 -1 47
-110 c81 -190 155 -324 220 -399 29 -33 30 -34 15 -70 -14 -33 -14 -50 0 -164
46 -381 102 -519 349 -864 19 -26 37 -67 41 -90 17 -100 147 -426 251 -628 63
-124 148 -259 166 -264 40 -11 503 -96 553 -101 l60 -6 -98 52 c-127 69 -210
138 -288 242 -62 83 -151 245 -164 299 -6 23 -3 27 27 33 18 4 61 19 96 32 35
14 65 23 67 21 3 -3 10 -31 15 -64 37 -207 174 -391 373 -500 l50 -27 -36 48
c-76 99 -109 195 -128 373 -6 59 -14 111 -17 116 -3 5 6 6 19 3 13 -3 64 -11
113 -18 139 -18 256 13 369 99 44 33 132 140 124 149 -2 2 -37 -12 -78 -31
-159 -73 -318 -90 -454 -48 -117 36 -224 123 -265 217 -17 38 -50 204 -50 251
0 28 38 39 77 22 17 -7 81 -11 158 -11 175 0 366 32 445 74 54 28 149 113 139
123 -2 3 -22 1 -44 -5 -52 -12 -413 -30 -462 -22 -95 14 -235 121 -298 227
-46 79 -108 267 -109 333 -1 29 -4 53 -8 53 -14 0 -58 -76 -79 -135 -34 -96
-45 -202 -31 -297 12 -81 50 -178 93 -240 20 -27 21 -34 10 -82 -14 -63 -6
-289 15 -391 8 -38 14 -84 14 -101 l0 -32 -42 9 c-87 19 -227 71 -272 100 -63
42 -104 92 -142 174 -32 69 -78 224 -70 233 3 2 44 17 93 34 172 57 290 148
226 172 -9 4 -71 4 -137 0 -153 -8 -187 0 -248 63 -83 85 -127 210 -128 359 0
56 5 81 26 123 41 81 51 85 248 92 94 3 227 14 295 23 155 22 179 18 467 -74
396 -128 569 -155 939 -147 138 3 302 13 365 21 165 23 154 26 124 -41 -66
-151 -172 -287 -281 -359 -31 -20 -112 -63 -181 -95 -149 -69 -144 -74 61 -66
138 5 259 32 348 77 21 11 39 17 39 12 0 -15 -92 -156 -142 -218 -58 -72 -123
-127 -225 -190 -70 -44 -72 -46 -61 -72 20 -50 22 -299 3 -393 -53 -266 -207
-464 -424 -546 -77 -29 -221 -62 -270 -63 -71 0 -19 -12 115 -25 493 -48 814
-18 1679 161 265 55 372 95 641 240 347 187 450 223 707 247 112 10 142 9 227
-6 159 -27 286 -77 417 -164 120 -79 223 -210 258 -327 l13 -41 12 44 c92 340
-44 673 -335 816 -128 63 -228 78 -430 63 -74 -6 -232 -45 -277 -69 -11 -6
-22 -9 -24 -6 -10 10 232 153 323 191 299 124 625 121 884 -10 184 -92 379
-289 513 -516 l48 -83 -6 140 c-20 490 -279 872 -676 997 -64 20 -95 23 -215
22 -223 -1 -416 -55 -690 -191 -71 -36 -123 -58 -116 -49 17 20 190 138 301
204 108 64 254 123 395 159 102 26 124 28 315 28 178 0 219 -3 310 -23 183
-41 305 -103 428 -217 98 -90 182 -208 235 -330 l17 -40 -6 100 c-7 115 -36
281 -65 375 -12 36 -41 105 -66 154 -171 330 -464 505 -812 483 -145 -9 -245
-32 -481 -109 -243 -79 -336 -124 -535 -258 -374 -253 -613 -523 -935 -1055
-56 -93 -121 -197 -143 -230 -57 -84 -180 -208 -202 -203 -35 6 -107 180 -141
338 -18 88 -31 310 -18 332 5 9 65 58 132 108 68 51 185 151 259 223 249 242
374 427 513 755 33 77 47 101 59 98 9 -3 32 -7 51 -11 19 -3 64 -14 100 -23
50 -13 110 -16 260 -16 471 1 731 76 1371 397 156 78 329 162 384 187 110 49
159 90 192 160 28 61 34 104 24 179 -5 42 -3 98 6 165 22 154 20 285 -5 392
-29 125 -104 382 -142 486 -113 314 -472 914 -817 1370 -136 179 -228 272
-325 326 -149 84 -538 228 -694 257 -249 47 -302 22 -565 -271 l-119 -134 0
-68 c0 -38 9 -105 21 -150 l20 -81 -25 -81 c-14 -45 -26 -95 -26 -113 0 -71
77 -143 210 -197 92 -37 172 -40 253 -10 l54 20 58 -34 c62 -38 118 -51 206
-50 68 1 186 36 223 65 26 21 28 21 41 3 46 -60 85 -254 85 -417 0 -114 -19
-448 -25 -455 -2 -2 -66 9 -142 25 -109 22 -164 28 -263 27 -140 0 -177 -8
-300 -65 l-86 -40 -69 41 c-78 45 -239 111 -330 134 -33 8 -98 20 -145 25
-140 18 -155 25 -206 102 -93 141 -146 289 -184 515 -39 232 -100 547 -130
664 -73 286 -201 591 -311 738 -35 46 -38 53 -22 58 87 27 184 103 229 179 88
151 97 394 22 575 l-21 52 -51 -99 c-51 -97 -134 -228 -142 -221 -2 2 9 33 23
68 36 87 44 268 18 387 -45 206 -195 393 -400 496 -39 19 -203 77 -219 77 -2
0 14 -34 35 -76z m-278 -1727 c25 -64 -96 -167 -178 -151 -35 6 -74 39 -61 51
11 11 210 111 222 112 7 1 14 -5 17 -12z m-602 -235 c74 -34 184 -113 319
-231 52 -46 112 -95 133 -108 20 -14 37 -31 37 -37 0 -6 -12 -29 -26 -50 -21
-30 -46 -48 -122 -83 -178 -83 -312 -93 -455 -33 -43 18 -75 35 -72 38 3 4 79
5 168 3 189 -3 293 14 372 60 28 16 43 29 35 29 -8 0 -78 3 -155 6 -77 3 -207
11 -290 19 -82 8 -240 17 -350 21 -169 6 -210 4 -264 -10 -35 -9 -66 -14 -69
-12 -2 3 8 31 22 63 20 42 53 83 124 153 114 112 200 160 339 190 110 24 172
20 254 -18z m-1592 -425 c-13 -11 -55 -35 -92 -54 -52 -26 -76 -33 -98 -28
-16 4 -31 10 -34 15 -9 14 50 56 121 85 38 16 78 35 89 42 18 12 21 11 29 -14
7 -22 5 -30 -15 -46z m4409 -226 c54 -36 64 -54 36 -65 -46 -18 -180 16 -224
56 -19 18 -22 28 -17 70 4 27 9 53 12 58 4 6 35 -10 73 -37 37 -26 91 -63 120
-82z m-3017 -197 c-109 -215 -145 -407 -107 -567 19 -83 58 -161 90 -182 41
-27 116 -30 169 -7 99 44 260 199 312 301 67 134 82 229 60 410 -19 169 -19
170 0 150 31 -31 57 -167 58 -304 0 -115 -3 -138 -25 -202 -32 -90 -62 -141
-136 -235 -198 -248 -400 -283 -529 -90 -107 159 -118 361 -32 564 48 111 177
299 186 271 2 -5 -19 -54 -46 -109z m2205 -2659 c-17 -47 -46 -107 -66 -133
-46 -61 -144 -127 -228 -152 -62 -19 -212 -43 -220 -36 -2 2 28 21 65 41 37
21 103 62 145 91 91 62 304 240 312 260 3 8 9 14 14 14 5 0 -4 -38 -22 -85z"/>
<path d="M6803 6948 c-12 -6 -24 -17 -27 -24 -4 -11 8 -14 54 -14 60 0 80 10
57 27 -20 17 -61 22 -84 11z"/>
</g>
</svg>
